<svg xmlns="http://www.w3.org/2000/svg" xmlns:xlink="http://www.w3.org/1999/xlink" version="1.1" id="Ebene_1" x="0px" y="0px" viewBox="0 0 887 595.3" enable-background="new 0 0 887 595.3" xml:space="preserve" height="100px"><path fill="#121212" d="M85.7 369.9c-31.5 0-57.2-26.6-57.2-59.7c0-33.1 25.7-60.1 57.2-60.1c25.5 0 45.5 15.1 53.2 38.2h-20.2 c-6.4-12.4-18.2-20.2-33.1-20.2c-21.1 0-38.4 19.1-38.4 42.2c0 23.1 17.3 41.7 38.4 41.7c15.1 0 26.8-7.8 33.1-20.2h20.2 C131.4 354.9 111.2 369.9 85.7 369.9z"></path><path fill="#121212" d="M280.9 310.5c0 32.8-24.8 59.5-57.5 59.5c-32.4 0-57.5-26.6-57.5-59.5c0-33.3 25.1-60.3 57.5-60.3 C256.1 250.1 280.9 277.2 280.9 310.5z M262 310.5c0-23.7-17.3-43-38.6-43c-21.1 0-38.4 19.3-38.4 43c0 23.3 17.3 42.2 38.4 42.2 C244.7 352.6 262 333.8 262 310.5z"></path><path fill="#121212" d="M285.2 253h18.6v69.4c0 17.5 9.8 30.4 28 30.4c17.3 0 30-12.9 30-30V253h18.9v114.3h-18.2v-12.4 c-7.8 9.5-19.5 15.3-33.3 15.3c-28 0-43.9-20-43.9-48.4V253z"></path><path fill="#121212" d="M481.3 228.7v24.4v12.6c-10.1-9.7-23.6-15.5-38.8-15.5c-32.4 0-57.5 27.1-57.5 60.3 c0 32.8 25.1 59.5 57.5 59.5c31.7 0 56.1-25.2 57.4-56.7c0-0.9 0.1-1.8 0.1-2.7v-81.8H481.3z M442.4 352.7 c-21.1 0-38.4-18.9-38.4-42.2c0-23.7 17.3-43 38.4-43c21.3 0 38.6 19.3 38.6 43C481 333.8 463.7 352.7 442.4 352.7z"></path><path fill="#121212" d="M143.1 367.3V228.7h18.6v138.6H143.1z"></path><path fill="#121212" d="M558.1 250.9v17.5c-22-2-35.9 8.7-35.9 30.6v68.3h-18.6v-67.9C503.6 264.8 528.2 247.3 558.1 250.9z"></path><path fill="#121212" d="M657 331.9c-8 24.4-27.5 38.2-53.9 38.2c-32.8 0-58.6-26.2-58.6-59.7c0-33.1 25.7-60.1 57.5-60.1 c29.5 0 57.9 24.4 57.7 65h-96.1c2.4 23.7 20.6 37.7 39.5 37.7c16.2 0 27.7-7.8 33.9-21.1H657z M638.8 298.3 c-4.7-18.6-20.2-31.1-36.8-31.1c-15.8 0-32.4 11.5-37.3 31.1H638.8z"></path><path fill="#121212" d="M746.2 253.1h-23.1l-23 33.3l11.5 16.7L746.2 253.1z M706.8 310.2L706.8 310.2l-11.5-16.7l0 0l-27.9-40.4 h-23.1l39.4 57.2l-39.4 57.2h23.1l27.9-40.4l0 0L706.8 310.2L706.8 310.2z M700.1 334.1l23 33.3h23.1l-34.5-50L700.1 334.1z"></path><path fill="#121212" d="M831 253.1H808l-23 33.3l11.5 16.7L831 253.1z M791.6 310.2L791.6 310.2l-11.5-16.7l0 0l-27.9-40.4h-23.1 l39.4 57.2l-39.4 57.2h23.1l27.9-40.4l0 0L791.6 310.2L791.6 310.2z M785 334.1l23 33.3H831l-34.5-50L785 334.1z"></path><g><g><path fill="#121212" d="M847.8 247.7c6.4 0 11.6 5.2 11.6 11.6c0 6.4-5.2 11.6-11.6 11.6c-6.4 0-11.6-5.2-11.6-11.6 C836.2 252.9 841.4 247.7 847.8 247.7z M847.8 268.3c4.8 0 8.6-4 8.6-9c0-5-3.8-9-8.6-9c-4.8 0-8.6 4-8.6 9 C839.2 264.4 843 268.3 847.8 268.3z M843.4 253.1h3.9c2.8 0 5.5 0.7 5.5 3.6c0 2.2-1.4 3.6-2.7 3.7l3.1 4.8h-3.3l-2.8-4.7h-0.7 v4.7h-3V253.1z M846.3 258.2h1.5c0.8 0 2 0 2-1.3c0-1.3-1.2-1.3-2-1.3h-1.5V258.2z"></path></g></g></svg>
